<?xml version="1.0" encoding="UTF-8" standalone="no"?>
<!DOCTYPE svg PUBLIC "-//W3C//DTD SVG 1.1//EN" "http://www.w3.org/Graphics/SVG/1.1/DTD/svg11.dtd">
<svg width="100%" height="100%" viewBox="0 0 3000 1075" version="1.1" xmlns="http://www.w3.org/2000/svg" xmlns:xlink="http://www.w3.org/1999/xlink" xml:space="preserve" xmlns:serif="http://www.serif.com/" style="fill-rule:evenodd;clip-rule:evenodd;stroke-linejoin:round;stroke-miterlimit:2;">
    <g transform="matrix(6.78733,0,0,3.93066,-149.321,0)">
        <g transform="matrix(0.117745,0,0,0.250831,-18262.7,1250.21)">
            <g transform="matrix(1.12084,0,0,1.03793,37880.4,11448.3)">
                <g transform="matrix(-1.18138,-0.366668,-1.46349,3.61276,110320,-22760.2)">
                    <path d="M1875.06,2143.73L1875.08,2143.72C1875.08,2143.72 1875.07,2143.72 1875.06,2143.72L1875.07,2143.71L1875.05,2143.72C1749.3,2130.59 1623.81,2117.94 1510.81,2127.68C1470.34,2104.01 1300.87,2085.43 1161.65,2099.8L1175.07,2102.11C1175.07,2102.11 1298.8,2095.29 1374.22,2111.7C1442.86,2126.63 1496.12,2148.07 1496.12,2148.07C1496.12,2148.07 1615.58,2146.82 1654.03,2149.15C1733.35,2153.97 1799.11,2164.38 1805.47,2165.41L1753.89,2281.11C1575.54,2269.01 1504.82,2267.76 1430.67,2273.16L1406.38,2282.54L1832.54,2324.93L1875.06,2143.73Z"/>
                </g>
                <g transform="matrix(1.24993,-0.294068,0.335955,1.09409,99047.9,-16400.7)">
                    <path d="M4914.91,2088.32L4963.86,2579.03L4600.01,2481.24L4580.64,2437.87C4580.64,2437.87 4650.83,2424.19 4728.66,2423.03C4821.75,2421.63 4866.78,2452.64 4866.78,2452.64L4900.79,2092.27L4914.91,2088.32Z"/>
                </g>
                <g transform="matrix(0.647359,-0.00277008,0.0144054,2.57935,102212,-19214.2)">
                    <path d="M4958.6,1452.76C4958.6,1452.76 4943.55,1482.75 5005.3,1558.4C5073.1,1641.46 5333.54,1674.26 5333.54,1674.26L4971.55,1668.6C4761.1,1603.6 4857.13,1539.29 4893.33,1460.98L4958.6,1452.76Z"/>
                </g>
            </g>
            <g>
                <g transform="matrix(5.05456,0,0,2.96604,154974,-9074.68)">
                    <path d="M433.882,1626.52C433.882,1616.83 435.815,1609.05 439.68,1603.18C443.545,1597.32 448.717,1594.39 455.196,1594.39C461.765,1594.39 466.971,1597.31 470.814,1603.14C474.656,1608.97 476.578,1616.76 476.578,1626.52C476.578,1636.14 474.645,1643.89 470.78,1649.76C466.915,1655.62 461.743,1658.55 455.264,1658.55C448.784,1658.55 443.601,1655.62 439.713,1649.76C435.826,1643.89 433.882,1636.14 433.882,1626.52ZM442.931,1626.52C442.931,1633.06 444.048,1638.24 446.282,1642.07C448.516,1645.9 451.51,1647.81 455.264,1647.81C459.062,1647.81 462.056,1645.91 464.245,1642.12C466.435,1638.32 467.529,1633.12 467.529,1626.52C467.529,1619.91 466.435,1614.7 464.245,1610.87C462.056,1607.04 459.039,1605.13 455.196,1605.13C451.398,1605.13 448.404,1607.04 446.215,1610.87C444.025,1614.7 442.931,1619.91 442.931,1626.52Z" style="fill-rule:nonzero;"/>
                    <path d="M499.032,1649.02C501.445,1649.02 503.411,1647.73 504.93,1645.17C506.449,1642.61 507.209,1639.02 507.209,1634.39C507.209,1629.76 506.449,1626.16 504.93,1623.6C503.411,1621.04 501.489,1619.76 499.166,1619.76C496.842,1619.76 494.831,1620.96 493.133,1623.37C491.435,1625.78 490.586,1629.36 490.586,1634.11C490.586,1638.86 491.413,1642.53 493.066,1645.13C494.72,1647.72 496.708,1649.02 499.032,1649.02ZM490.586,1610.96L490.586,1618.18C492.999,1612.94 496.462,1610.31 500.975,1610.31C505.399,1610.31 508.918,1612.51 511.532,1616.89C514.146,1621.27 515.453,1627.04 515.453,1634.2C515.453,1641.24 514.146,1647.06 511.532,1651.65C508.918,1656.25 505.377,1658.55 500.908,1658.55C496.351,1658.55 492.91,1655.99 490.586,1650.87L490.586,1675.59L482.543,1675.59L482.543,1610.96L490.586,1610.96Z" style="fill-rule:nonzero;"/>
                    <path d="M541.526,1630.59L541.526,1629.2C541.437,1626.18 540.845,1623.75 539.75,1621.93C538.655,1620.11 537.058,1619.2 534.958,1619.2C533.036,1619.2 531.372,1620.17 529.964,1622.12C528.557,1624.06 527.652,1626.89 527.25,1630.59L541.526,1630.59ZM547.022,1645.68L547.022,1655.31C544.654,1657.35 541.236,1658.37 536.767,1658.37C531.361,1658.37 527.093,1656.14 523.965,1651.7C520.838,1647.26 519.274,1641.52 519.274,1634.48C519.274,1627.01 520.748,1621.15 523.697,1616.89C526.647,1612.63 530.333,1610.5 534.757,1610.5C539.18,1610.5 542.688,1612.35 545.28,1616.05C547.871,1619.76 549.167,1625.16 549.167,1632.26C549.167,1633.99 549.011,1636.21 548.698,1638.92L527.384,1638.92C527.965,1642.32 529.182,1644.91 531.037,1646.7C532.891,1648.49 535.204,1649.38 537.974,1649.38C541.549,1649.38 544.565,1648.15 547.022,1645.68Z" style="fill-rule:nonzero;"/>
                    <path d="M563.31,1610.96L563.31,1619.02C565.231,1613.28 568.717,1610.41 573.766,1610.41C577.162,1610.41 579.843,1611.83 581.809,1614.66C583.775,1617.51 584.758,1621.52 584.758,1626.7L584.758,1657.9L576.715,1657.9L576.715,1629.02C576.715,1625.93 576.179,1623.6 575.107,1622.03C574.034,1620.45 572.582,1619.66 570.75,1619.66C568.65,1619.66 566.885,1620.79 565.455,1623.04C564.025,1625.3 563.31,1628.52 563.31,1632.72L563.31,1657.9L555.267,1657.9L555.267,1610.96L563.31,1610.96Z" style="fill-rule:nonzero;"/>
                    <path d="M616.06,1648.37L634.492,1648.37L634.492,1657.9L607.547,1657.9L607.547,1595.5L634.224,1595.5L634.224,1605.04L616.06,1605.04L616.06,1621.98L632.213,1621.98L632.213,1631.42L616.06,1631.42L616.06,1648.37Z" style="fill-rule:nonzero;"/>
                    <path d="M649.372,1610.96L649.372,1619.02C651.293,1613.28 654.778,1610.41 659.828,1610.41C663.224,1610.41 665.905,1611.83 667.871,1614.66C669.837,1617.51 670.82,1621.52 670.82,1626.7L670.82,1657.9L662.777,1657.9L662.777,1629.02C662.777,1625.93 662.241,1623.6 661.168,1622.03C660.096,1620.45 658.644,1619.66 656.812,1619.66C654.711,1619.66 652.946,1620.79 651.516,1623.04C650.087,1625.3 649.372,1628.52 649.372,1632.72L649.372,1657.9L641.328,1657.9L641.328,1610.96L649.372,1610.96Z" style="fill-rule:nonzero;"/>
                    <path d="M692.134,1647.35C694.324,1647.35 696.156,1646.16 697.631,1643.78C699.105,1641.41 699.842,1638.31 699.842,1634.48C699.842,1629.48 699.127,1625.81 697.698,1623.46C696.268,1621.12 694.458,1619.94 692.268,1619.94C689.945,1619.94 688.113,1621.19 686.772,1623.69C685.432,1626.19 684.761,1629.57 684.761,1633.83C684.761,1638.21 685.454,1641.56 686.839,1643.88C688.225,1646.19 689.99,1647.35 692.134,1647.35ZM699.842,1610.96L707.886,1610.96L707.886,1653.64C707.886,1661.05 706.333,1666.62 703.227,1670.36C700.122,1674.09 696.178,1675.96 691.397,1675.96C686.929,1675.96 683.019,1674.85 679.667,1672.62L679.667,1661.33C682.706,1664.29 686.348,1665.77 690.593,1665.77C696.759,1665.77 699.842,1661.7 699.842,1653.55L699.842,1649.48C697.787,1654.11 694.57,1656.42 690.191,1656.42C686.392,1656.42 683.142,1654.49 680.438,1650.63C677.735,1646.78 676.383,1641.18 676.383,1633.83C676.383,1627.04 677.668,1621.44 680.237,1617.03C682.807,1612.61 686.191,1610.41 690.392,1610.41C694.637,1610.41 697.787,1612.85 699.842,1617.72L699.842,1610.96Z" style="fill-rule:nonzero;"/>
                    <rect x="715.258" y="1592.44" width="8.043" height="65.458" style="fill-rule:nonzero;"/>
                    <path d="M731.412,1657.9L731.412,1610.96L739.455,1610.96L739.455,1657.9L731.412,1657.9ZM730.607,1596.89C730.607,1595.04 731.077,1593.46 732.015,1592.17C732.953,1590.87 734.093,1590.22 735.433,1590.22C736.774,1590.22 737.913,1590.87 738.852,1592.17C739.79,1593.46 740.259,1595.04 740.259,1596.89C740.259,1598.8 739.79,1600.41 738.852,1601.7C737.913,1603 736.774,1603.65 735.433,1603.65C734.093,1603.65 732.953,1603 732.015,1601.7C731.077,1600.41 730.607,1598.8 730.607,1596.89Z" style="fill-rule:nonzero;"/>
                    <path d="M767.539,1612.44L767.539,1622.26C765.305,1620.41 762.512,1619.48 759.161,1619.48C757.775,1619.48 756.692,1619.9 755.91,1620.73C755.128,1621.56 754.737,1622.63 754.737,1623.92C754.737,1624.42 754.793,1624.88 754.904,1625.31C755.016,1625.75 755.217,1626.16 755.508,1626.56C755.798,1626.96 756.077,1627.32 756.346,1627.63C756.614,1627.94 756.993,1628.26 757.485,1628.6C757.977,1628.94 758.401,1629.23 758.759,1629.48C759.116,1629.73 759.608,1630.04 760.233,1630.4C760.859,1630.78 761.35,1631.08 761.708,1631.33C764.076,1632.94 765.953,1634.73 767.338,1636.7C768.723,1638.68 769.416,1641.24 769.416,1644.39C769.416,1648.77 768.276,1652.19 765.997,1654.66C763.718,1657.13 760.68,1658.37 756.882,1658.37C752.681,1658.37 749.285,1657.41 746.694,1655.5L746.694,1645.31C749.688,1648.09 752.927,1649.48 756.413,1649.48C757.887,1649.48 759.038,1649.09 759.864,1648.32C760.691,1647.55 761.104,1646.48 761.104,1645.13C761.104,1644.32 760.97,1643.6 760.702,1642.95C760.434,1642.3 759.92,1641.67 759.161,1641.05C758.401,1640.43 757.809,1639.99 757.384,1639.71C756.96,1639.43 756.122,1638.92 754.871,1638.18C754.737,1638.12 754.636,1638.06 754.569,1638C754.502,1637.93 754.402,1637.87 754.268,1637.81C754.134,1637.75 754.022,1637.69 753.933,1637.63C748.973,1634.54 746.493,1630.1 746.493,1624.29C746.493,1619.97 747.677,1616.58 750.045,1614.11C752.413,1611.64 755.385,1610.41 758.96,1610.41C762.4,1610.41 765.26,1611.09 767.539,1612.44Z" style="fill-rule:nonzero;"/>
                    <path d="M782.62,1592.44L782.62,1618.92C784.452,1613.25 787.915,1610.41 793.009,1610.41C796.316,1610.41 798.985,1611.84 801.019,1614.71C803.052,1617.58 804.068,1621.73 804.068,1627.16L804.068,1657.9L796.025,1657.9L796.025,1629.11C796.025,1626.15 795.478,1623.83 794.383,1622.16C793.288,1620.5 791.869,1619.66 790.127,1619.66C788.205,1619.66 786.474,1620.68 784.932,1622.72C783.391,1624.76 782.62,1628.09 782.62,1632.72L782.62,1657.9L774.577,1657.9L774.577,1592.44L782.62,1592.44Z" style="fill-rule:nonzero;"/>
                </g>
                <g transform="matrix(5.02949,0,0,2.6296,154994,-8277.72)">
                    <path d="M464.343,1595.82L464.343,1606.68L452.825,1606.68L452.825,1666.21L444.27,1666.21L444.27,1606.68L432.751,1606.68L432.751,1595.82L464.343,1595.82Z" style="fill-rule:nonzero;"/>
                    <path d="M483.002,1613.26L483.002,1622.66C484.574,1616.12 487.448,1612.84 491.624,1612.84C492.567,1612.84 493.331,1612.95 493.915,1613.16L493.915,1625.27C492.882,1624.57 491.737,1624.23 490.479,1624.23C488.279,1624.23 486.483,1625.62 485.09,1628.4C483.698,1631.19 483.002,1634.67 483.002,1638.85L483.002,1666.21L474.852,1666.21L474.919,1613.26L483.002,1613.26Z" style="fill-rule:nonzero;"/>
                    <path d="M520.657,1643.44L516.48,1643.44C514.37,1643.44 512.753,1644.12 511.63,1645.48C510.508,1646.84 509.946,1648.56 509.946,1650.65C509.946,1655.1 511.608,1657.33 514.931,1657.33C516.727,1657.33 518.131,1656.51 519.141,1654.88C520.152,1653.24 520.657,1651.1 520.657,1648.45L520.657,1643.44ZM504.086,1627.57L504.086,1615.98C506.646,1613.54 510.328,1612.32 515.133,1612.32C524.384,1612.32 529.009,1619 529.009,1632.37L529.009,1666.21L520.994,1666.21L520.994,1659.84C519.422,1664.36 516.458,1666.62 512.102,1666.62C508.869,1666.62 506.298,1665.16 504.389,1662.24C502.481,1659.32 501.526,1655.62 501.526,1651.17C501.526,1646.16 502.739,1642.22 505.164,1639.37C507.589,1636.51 511.092,1635.09 515.672,1635.09L520.657,1635.09L520.657,1631.85C520.657,1628.92 520.163,1626.7 519.175,1625.16C518.187,1623.63 516.503,1622.87 514.123,1622.87C510.485,1622.87 507.14,1624.43 504.086,1627.57Z" style="fill-rule:nonzero;"/>
                    <path d="M549.959,1613.26L549.959,1622.35C551.89,1615.87 555.392,1612.63 560.467,1612.63C563.88,1612.63 566.574,1614.24 568.55,1617.44C570.526,1620.64 571.514,1625.16 571.514,1631.01L571.514,1666.21L563.431,1666.21L563.431,1633.62C563.431,1630.14 562.892,1627.52 561.814,1625.74C560.736,1623.96 559.277,1623.08 557.436,1623.08C555.325,1623.08 553.551,1624.35 552.114,1626.89C550.677,1629.43 549.959,1633.07 549.959,1637.8L549.959,1666.21L541.875,1666.21L541.875,1613.26L549.959,1613.26Z" style="fill-rule:nonzero;"/>
                    <path d="M604.857,1614.93L604.857,1626C602.612,1623.91 599.805,1622.87 596.437,1622.87C595.045,1622.87 593.956,1623.34 593.17,1624.28C592.384,1625.22 591.991,1626.42 591.991,1627.88C591.991,1628.44 592.048,1628.96 592.16,1629.45C592.272,1629.93 592.474,1630.4 592.766,1630.86C593.058,1631.31 593.339,1631.71 593.608,1632.06C593.877,1632.41 594.259,1632.77 594.753,1633.15C595.247,1633.54 595.674,1633.87 596.033,1634.15C596.392,1634.42 596.886,1634.77 597.515,1635.19C598.144,1635.61 598.638,1635.96 598.997,1636.24C601.377,1638.05 603.263,1640.06 604.655,1642.29C606.047,1644.52 606.743,1647.41 606.743,1650.96C606.743,1655.9 605.598,1659.77 603.308,1662.55C601.018,1665.34 597.964,1666.73 594.147,1666.73C589.926,1666.73 586.513,1665.65 583.908,1663.49L583.908,1652C586.917,1655.14 590.173,1656.7 593.675,1656.7C595.157,1656.7 596.314,1656.27 597.144,1655.4C597.975,1654.53 598.391,1653.33 598.391,1651.8C598.391,1650.89 598.256,1650.07 597.986,1649.34C597.717,1648.61 597.201,1647.9 596.437,1647.2C595.674,1646.5 595.079,1646 594.652,1645.69C594.226,1645.37 593.384,1644.8 592.126,1643.96C591.991,1643.89 591.89,1643.82 591.823,1643.75C591.756,1643.68 591.655,1643.62 591.52,1643.55C591.385,1643.48 591.273,1643.41 591.183,1643.34C586.198,1639.86 583.706,1634.84 583.706,1628.3C583.706,1623.42 584.896,1619.6 587.276,1616.81C589.656,1614.03 592.643,1612.63 596.235,1612.63C599.693,1612.63 602.567,1613.4 604.857,1614.93Z" style="fill-rule:nonzero;"/>
                    <rect x="618.06" y="1592.37" width="8.083" height="73.833" style="fill-rule:nonzero;"/>
                    <path d="M657.196,1643.44L653.02,1643.44C650.909,1643.44 649.293,1644.12 648.17,1645.48C647.047,1646.84 646.486,1648.56 646.486,1650.65C646.486,1655.1 648.148,1657.33 651.471,1657.33C653.267,1657.33 654.67,1656.51 655.681,1654.88C656.691,1653.24 657.196,1651.1 657.196,1648.45L657.196,1643.44ZM640.626,1627.57L640.626,1615.98C643.185,1613.54 646.868,1612.32 651.673,1612.32C660.924,1612.32 665.549,1619 665.549,1632.37L665.549,1666.21L657.533,1666.21L657.533,1659.84C655.961,1664.36 652.997,1666.62 648.642,1666.62C645.408,1666.62 642.837,1665.16 640.929,1662.24C639.02,1659.32 638.066,1655.62 638.066,1651.17C638.066,1646.16 639.278,1642.22 641.703,1639.37C644.128,1636.51 647.631,1635.09 652.212,1635.09L657.196,1635.09L657.196,1631.85C657.196,1628.92 656.702,1626.7 655.714,1625.16C654.726,1623.63 653.042,1622.87 650.662,1622.87C647.025,1622.87 643.679,1624.43 640.626,1627.57Z" style="fill-rule:nonzero;"/>
                    <path d="M688.249,1622.66L688.249,1649.6C688.249,1651.83 688.631,1653.52 689.395,1654.67C690.158,1655.82 691.213,1656.39 692.561,1656.39C694.267,1656.39 695.839,1655.66 697.276,1654.2L697.276,1664.95C695.704,1666.14 693.683,1666.73 691.213,1666.73C683.849,1666.73 680.166,1660.95 680.166,1649.39L680.166,1622.66L675.047,1622.66L675.047,1613.26L680.166,1613.26L680.166,1600.52L688.249,1600.52L688.249,1613.26L696.737,1613.26L696.737,1622.66L688.249,1622.66Z" style="fill-rule:nonzero;"/>
                    <path d="M708.794,1666.21L708.794,1613.26L716.878,1613.26L716.878,1666.21L708.794,1666.21ZM707.986,1597.39C707.986,1595.3 708.458,1593.52 709.401,1592.06C710.344,1590.6 711.489,1589.87 712.836,1589.87C714.183,1589.87 715.328,1590.6 716.271,1592.06C717.214,1593.52 717.686,1595.3 717.686,1597.39C717.686,1599.55 717.214,1601.36 716.271,1602.82C715.328,1604.28 714.183,1605.01 712.836,1605.01C711.489,1605.01 710.344,1604.28 709.401,1602.82C708.458,1601.36 707.986,1599.55 707.986,1597.39Z" style="fill-rule:nonzero;"/>
                    <path d="M745.102,1667.04C739.937,1667.04 735.907,1664.54 733.01,1659.52C730.114,1654.51 728.666,1648.11 728.666,1640.31C728.666,1632.23 730.17,1625.57 733.179,1620.31C736.188,1615.05 740.162,1612.42 745.102,1612.42C750.356,1612.42 754.42,1614.98 757.294,1620.1C760.168,1625.22 761.605,1631.71 761.605,1639.58C761.605,1647.58 760.157,1654.16 757.26,1659.32C754.364,1664.47 750.311,1667.04 745.102,1667.04ZM745.102,1622.66C742.542,1622.66 740.577,1624.3 739.208,1627.57C737.838,1630.84 737.153,1634.95 737.153,1639.89C737.153,1644.76 737.849,1648.84 739.241,1652.11C740.633,1655.38 742.609,1657.02 745.169,1657.02C747.819,1657.02 749.817,1655.42 751.164,1652.21C752.511,1649.01 753.185,1644.94 753.185,1640C753.185,1634.91 752.534,1630.75 751.231,1627.52C749.929,1624.28 747.886,1622.66 745.102,1622.66Z" style="fill-rule:nonzero;"/>
                    <path d="M781.139,1613.26L781.139,1622.35C783.07,1615.87 786.573,1612.63 791.648,1612.63C795.061,1612.63 797.755,1614.24 799.731,1617.44C801.707,1620.64 802.695,1625.16 802.695,1631.01L802.695,1666.21L794.612,1666.21L794.612,1633.62C794.612,1630.14 794.073,1627.52 792.995,1625.74C791.917,1623.96 790.458,1623.08 788.616,1623.08C786.506,1623.08 784.732,1624.35 783.295,1626.89C781.858,1629.43 781.139,1633.07 781.139,1637.8L781.139,1666.21L773.056,1666.21L773.056,1613.26L781.139,1613.26Z" style="fill-rule:nonzero;"/>
                </g>
                <g transform="matrix(5.08818,0,0,7.7255,154947,-17366.7)">
                    <path d="M502.752,1670.59C481.132,1670.59 464.613,1667.93 453.195,1662.62C441.776,1657.32 436.067,1648.74 436.067,1636.9C436.067,1628.73 438.635,1622.15 443.769,1617.15C448.904,1612.14 456.438,1608.5 466.369,1606.22C476.301,1603.94 488.429,1602.8 502.752,1602.8C517.076,1602.8 529.203,1603.94 539.135,1606.22C549.067,1608.5 556.6,1612.14 561.735,1617.15C566.87,1622.15 569.437,1628.73 569.437,1636.9C569.437,1648.74 563.694,1657.32 552.209,1662.62C540.723,1667.93 524.237,1670.59 502.752,1670.59ZM502.752,1654.25C512.481,1654.25 519.542,1652.88 523.933,1650.12C528.325,1647.36 530.521,1642.96 530.521,1636.9C530.521,1630.43 528.325,1625.86 523.933,1623.17C519.542,1620.48 512.481,1619.14 502.752,1619.14C493.023,1619.14 485.963,1620.48 481.571,1623.17C477.18,1625.86 474.984,1630.43 474.984,1636.9C474.984,1642.96 477.18,1647.36 481.571,1650.12C485.963,1652.88 493.023,1654.25 502.752,1654.25Z" style="fill-rule:nonzero;"/>
                    <path d="M587.274,1669.57L587.274,1603.83L686.187,1603.83L686.187,1618.53L625.38,1618.53L625.38,1629.24L678.687,1629.24L678.687,1644.15L625.38,1644.15L625.38,1654.87L686.187,1654.87L686.187,1669.57L587.274,1669.57Z" style="fill-rule:nonzero;"/>
                    <path d="M730.576,1669.57L730.576,1618.12L693.889,1618.12L693.889,1603.83L805.368,1603.83L805.368,1618.12L768.681,1618.12L768.681,1669.57L730.576,1669.57Z" style="fill-rule:nonzero;"/>
                </g>
            </g>
        </g>
    </g>
</svg>
