<?xml version="1.0" encoding="UTF-8" standalone="no"?>
<!DOCTYPE svg PUBLIC "-//W3C//DTD SVG 1.1//EN" "http://www.w3.org/Graphics/SVG/1.1/DTD/svg11.dtd">
<svg width="100%" height="100%" viewBox="0 0 512 340" version="1.1" xmlns="http://www.w3.org/2000/svg" xmlns:xlink="http://www.w3.org/1999/xlink" xml:space="preserve" xmlns:serif="http://www.serif.com/" style="fill-rule:evenodd;clip-rule:evenodd;stroke-linejoin:round;stroke-miterlimit:2;">
    <g transform="matrix(1.15837,0,0,1.24088,-25.4842,0)">
        <g transform="matrix(0.323537,0,0,0.345046,-33869.3,5418.34)">
            <g>
                <g transform="matrix(-1.18138,-0.366668,-1.46349,3.61276,110320,-22760.2)">
                    <path d="M1875.06,2143.73L1875.08,2143.72C1875.08,2143.72 1875.07,2143.72 1875.06,2143.72L1875.07,2143.71L1875.05,2143.72C1749.3,2130.59 1623.81,2117.94 1510.81,2127.68C1470.34,2104.01 1300.87,2085.43 1161.65,2099.8L1175.07,2102.11C1175.07,2102.11 1298.8,2095.29 1374.22,2111.7C1442.86,2126.63 1496.12,2148.07 1496.12,2148.07C1496.12,2148.07 1615.58,2146.82 1654.03,2149.15C1733.35,2153.97 1799.11,2164.38 1805.47,2165.41L1753.89,2281.11C1575.54,2269.01 1504.82,2267.76 1430.67,2273.16L1406.38,2282.54L1832.54,2324.93L1875.06,2143.73Z"/>
                </g>
                <g transform="matrix(1.24993,-0.294068,0.335955,1.09409,99047.9,-16400.7)">
                    <path d="M4914.91,2088.32L4963.86,2579.03L4600.01,2481.24L4580.64,2437.87C4580.64,2437.87 4650.83,2424.19 4728.66,2423.03C4821.75,2421.63 4866.78,2452.64 4866.78,2452.64L4900.79,2092.27L4914.91,2088.32Z"/>
                </g>
                <g transform="matrix(0.647359,-0.00277008,0.0144054,2.57935,102212,-19214.2)">
                    <path d="M4958.6,1452.76C4958.6,1452.76 4943.55,1482.75 5005.3,1558.4C5073.1,1641.46 5333.54,1674.26 5333.54,1674.26L4971.55,1668.6C4761.1,1603.6 4857.13,1539.29 4893.33,1460.98L4958.6,1452.76Z"/>
                </g>
            </g>
        </g>
    </g>
</svg>
